<svg width="240" height="55" viewBox="0 0 240 55" fill="none" xmlns="http://www.w3.org/2000/svg">
<path d="M112.181 12.4241H117.541V49.5841H112.181V12.4241ZM97.5805 15.0241C103.181 15.0241 107.301 20.1441 107.301 28.2241C107.301 36.3841 103.181 41.5041 97.5805 41.5041C91.9805 41.5041 87.8605 36.3841 87.8605 28.2241C87.8605 20.1441 91.9805 15.0241 97.5805 15.0241ZM97.5805 19.8641C94.8205 19.8641 92.9405 22.7841 92.9405 28.2241C92.9405 33.7441 94.8205 36.7041 97.5805 36.7041C100.341 36.7041 102.181 33.7441 102.181 28.2241C102.181 22.7841 100.341 19.8641 97.5805 19.8641ZM133.897 15.3041H138.217V20.7041C138.217 29.8641 135.017 38.4641 128.017 41.9041L124.817 37.6241C131.057 34.7041 133.897 27.5841 133.897 20.7041V15.3041ZM134.977 15.3041H139.217V20.7041C139.217 27.3441 141.857 34.1041 147.777 36.9841L144.577 41.2241C137.897 37.8241 134.977 29.5841 134.977 20.7041V15.3041ZM149.257 12.4641H154.617V49.5041H149.257V12.4641ZM153.417 26.7041H159.977V31.1441H153.417V26.7041ZM164.414 40.8241H197.934V45.1841H164.414V40.8241ZM178.334 32.5841H183.614V41.9841H178.334V32.5841ZM178.134 14.5041H182.774V17.1841C182.774 25.0641 177.054 32.0241 167.374 33.7841L165.174 29.3441C173.614 27.9841 178.134 22.3041 178.134 17.1841V14.5041ZM179.174 14.5041H183.814V17.1841C183.814 22.4241 188.334 27.9841 196.814 29.3441L194.614 33.7841C184.894 31.9841 179.174 25.1841 179.174 17.1841V14.5041ZM203.131 31.5441H236.651V35.7041H203.131V31.5441ZM217.211 27.5841H222.531V33.0641H217.211V27.5841ZM207.291 25.2641H233.091V29.3041H207.291V25.2641ZM207.291 13.3841H232.811V17.4241H212.571V27.5441H207.291V13.3841ZM211.091 19.3841H231.971V23.2641H211.091V19.3841ZM219.851 37.3441C227.971 37.3441 232.691 39.5041 232.691 43.4241C232.691 47.3841 227.971 49.5041 219.851 49.5041C211.691 49.5041 206.971 47.3841 206.971 43.4241C206.971 39.5041 211.691 37.3441 219.851 37.3441ZM219.851 41.2641C214.691 41.2641 212.331 41.9041 212.331 43.4241C212.331 44.9841 214.691 45.6241 219.851 45.6241C224.971 45.6241 227.331 44.9841 227.331 43.4241C227.331 41.9041 224.971 41.2641 219.851 41.2641Z" fill="black"/>
<g clip-path="url(#clip0_123_192)">
<path fill-rule="evenodd" clip-rule="evenodd" d="M0.0950928 49.9847L4.31562 30.0413L48.6706 0.0185547L47.8238 18.1959L0.0950928 49.9847Z" fill="#4291DE"/>
<path d="M37.7712 41.3635H33.7683V45.5681H37.7712V41.3635Z" fill="#4391DF"/>
<path fill-rule="evenodd" clip-rule="evenodd" d="M69.9604 49.9845L65.74 30.0412L21.3852 0.0184014L22.2318 18.1958L69.9604 49.9845Z" fill="#CBE342"/>
</g>
<defs>
<clipPath id="clip0_123_192">
<rect width="70" height="50" fill="white"/>
</clipPath>
</defs>
</svg>
