<svg width="23" height="23" viewBox="0 0 23 23" fill="none" xmlns="http://www.w3.org/2000/svg">
<g id="Star 4">
<path d="M10.8723 1.27189C11.1291 0.751619 11.8709 0.751618 12.1277 1.27189L15.0108 7.11363C15.1128 7.32023 15.3098 7.46343 15.5378 7.49656L21.9846 8.43333C22.5587 8.51676 22.788 9.22234 22.3725 9.62732L17.7076 14.1745C17.5427 14.3353 17.4674 14.567 17.5063 14.7941L18.6075 21.2148C18.7056 21.7866 18.1054 22.2227 17.5919 21.9527L11.8257 18.9213C11.6218 18.814 11.3782 18.814 11.1743 18.9213L5.40812 21.9527C4.89458 22.2227 4.29437 21.7866 4.39245 21.2148L5.49369 14.7941C5.53263 14.567 5.45735 14.3353 5.29237 14.1745L0.627459 9.62732C0.211997 9.22234 0.441253 8.51676 1.01541 8.43333L7.46215 7.49656C7.69015 7.46343 7.88725 7.32023 7.98921 7.11363L10.8723 1.27189Z" fill="#F2E914"/>
<path d="M11.3207 1.49317C11.394 1.34452 11.606 1.34453 11.6793 1.49317L14.5624 7.33492L15.0108 7.11363L14.5624 7.33492C14.7372 7.68909 15.0751 7.93457 15.4659 7.99137L21.9127 8.92813C22.0767 8.95197 22.1422 9.15357 22.0235 9.26927L17.3586 13.8164C17.0758 14.0921 16.9467 14.4893 17.0135 14.8786L18.1147 21.2993C18.1428 21.4627 17.9713 21.5873 17.8246 21.5101L12.0584 18.4787C11.7088 18.2949 11.2912 18.2949 10.9416 18.4787L5.17545 21.5101C5.02872 21.5873 4.85723 21.4627 4.88525 21.2993L5.98649 14.8786C6.05326 14.4893 5.9242 14.0921 5.64137 13.8164L0.976465 9.26927C0.85776 9.15357 0.923264 8.95197 1.08731 8.92813L7.53405 7.99137C7.9249 7.93457 8.26278 7.68909 8.43758 7.33492L11.3207 1.49317Z" stroke="black" stroke-opacity="0.34"/>
</g>
</svg>
