<svg width="55" height="55" viewBox="0 0 55 55" fill="none" xmlns="http://www.w3.org/2000/svg">
<path d="M13.4062 39.1875C15.3542 37.6979 17.5312 36.5234 19.9375 35.664C22.3438 34.8047 24.8646 34.375 27.5 34.375C30.1354 34.375 32.6562 34.8047 35.0625 35.664C37.4688 36.5234 39.6458 37.6979 41.5937 39.1875C42.9306 37.6215 43.9714 35.8455 44.7161 33.8594C45.4609 31.8732 45.8333 29.7535 45.8333 27.5C45.8333 22.4201 44.0477 18.0946 40.4766 14.5234C36.9054 10.9522 32.5799 9.16665 27.5 9.16665C22.4201 9.16665 18.0946 10.9522 14.5234 14.5234C10.9523 18.0946 9.16667 22.4201 9.16667 27.5C9.16667 29.7535 9.53906 31.8732 10.2839 33.8594C11.0286 35.8455 12.0694 37.6215 13.4062 39.1875ZM27.5 29.7916C25.2465 29.7916 23.3464 29.0182 21.7995 27.4713C20.2526 25.9245 19.4792 24.0243 19.4792 21.7708C19.4792 19.5173 20.2526 17.6172 21.7995 16.0703C23.3464 14.5234 25.2465 13.75 27.5 13.75C29.7535 13.75 31.6536 14.5234 33.2005 16.0703C34.7474 17.6172 35.5208 19.5173 35.5208 21.7708C35.5208 24.0243 34.7474 25.9245 33.2005 27.4713C31.6536 29.0182 29.7535 29.7916 27.5 29.7916ZM27.5 50.4166C24.3299 50.4166 21.3507 49.8151 18.5625 48.612C15.7743 47.4088 13.349 45.776 11.2865 43.7135C9.22396 41.651 7.59114 39.2257 6.38802 36.4375C5.18489 33.6493 4.58333 30.6701 4.58333 27.5C4.58333 24.3298 5.18489 21.3507 6.38802 18.5625C7.59114 15.7743 9.22396 13.3489 11.2865 11.2864C13.349 9.22394 15.7743 7.59113 18.5625 6.388C21.3507 5.18488 24.3299 4.58331 27.5 4.58331C30.6701 4.58331 33.6493 5.18488 36.4375 6.388C39.2257 7.59113 41.651 9.22394 43.7135 11.2864C45.776 13.3489 47.4089 15.7743 48.612 18.5625C49.8151 21.3507 50.4167 24.3298 50.4167 27.5C50.4167 30.6701 49.8151 33.6493 48.612 36.4375C47.4089 39.2257 45.776 41.651 43.7135 43.7135C41.651 45.776 39.2257 47.4088 36.4375 48.612C33.6493 49.8151 30.6701 50.4166 27.5 50.4166Z" fill="#49454F"/>
</svg>
