<svg width="48" height="51" viewBox="0 0 48 51" fill="none" xmlns="http://www.w3.org/2000/svg">
<path d="M10.4561 19.4055H7.40055C7.19795 19.4055 7.00365 19.325 6.8604 19.1818C6.71714 19.0385 6.63666 18.8442 6.63666 18.6416V7.94718C6.63666 7.74458 6.71714 7.55028 6.8604 7.40703C7.00365 7.26377 7.19795 7.18329 7.40055 7.18329H10.4561C10.6587 7.18329 10.853 7.26377 10.9963 7.40703C11.1395 7.55028 11.22 7.74458 11.22 7.94718V18.6416C11.22 18.8442 11.1395 19.0385 10.9963 19.1818C10.853 19.325 10.6587 19.4055 10.4561 19.4055Z" fill="#A0041E"/>
<path d="M3.81946 21.3886L23.6806 1.52747L43.5417 21.3886V47.3608H3.81946V21.3886Z" fill="#FFE8B6"/>
<path d="M23.6805 21.3885H25.2083V45.833H23.6805V21.3885Z" fill="#FFCC4D"/>
<path d="M43.5416 22.9163C43.1365 22.9163 42.7479 22.7552 42.4615 22.4687L23.6805 3.68773L4.89956 22.4687C4.75771 22.6105 4.58931 22.7231 4.40398 22.7998C4.21865 22.8766 4.02002 22.9161 3.81942 22.9161C3.61882 22.9161 3.42018 22.8766 3.23485 22.7998C3.04952 22.7231 2.88112 22.6105 2.73928 22.4687C2.59743 22.3269 2.48491 22.1585 2.40815 21.9731C2.33138 21.7878 2.29187 21.5892 2.29187 21.3886C2.29187 21.188 2.33138 20.9893 2.40815 20.804C2.48491 20.6187 2.59743 20.4503 2.73928 20.3084L22.6004 0.447312C22.8869 0.160898 23.2754 0 23.6805 0C24.0856 0 24.4742 0.160898 24.7607 0.447312L44.6218 20.3084C44.8361 20.5218 44.9822 20.794 45.0416 21.0906C45.1009 21.3872 45.0708 21.6947 44.9551 21.9741C44.8394 22.2535 44.6432 22.4923 44.3916 22.66C44.1399 22.8278 43.8441 22.917 43.5416 22.9163Z" fill="#66757F"/>
<path d="M23.6806 22.9163C23.3781 22.917 23.0823 22.8278 22.8306 22.66C22.579 22.4923 22.3828 22.2535 22.2671 21.9741C22.1514 21.6947 22.1213 21.3871 22.1806 21.0906C22.24 20.794 22.3861 20.5218 22.6004 20.3084L32.531 10.3778C32.6728 10.236 32.8412 10.1235 33.0266 10.0467C33.2119 9.96993 33.4105 9.93042 33.6111 9.93042C33.8117 9.93042 34.0104 9.96993 34.1957 10.0467C34.381 10.1235 34.5494 10.236 34.6913 10.3778C34.8331 10.5197 34.9456 10.6881 35.0224 10.8734C35.0992 11.0587 35.1387 11.2574 35.1387 11.458C35.1387 11.6586 35.0992 11.8572 35.0224 12.0425C34.9456 12.2279 34.8331 12.3963 34.6913 12.5381L24.7607 22.4687C24.4743 22.7552 24.0857 22.9162 23.6806 22.9163Z" fill="#66757F"/>
<path d="M11.4583 36.6664H17.5694V45.833H11.4583V36.6664Z" fill="#C1694F"/>
<path d="M11.4583 22.9164H17.5694V29.0275H11.4583V22.9164ZM30.5555 22.9164H36.6666V29.0275H30.5555V22.9164ZM30.5555 36.6664H36.6666V42.7775H30.5555V36.6664Z" fill="#55ACEE"/>
<path d="M47.3611 48.1247C47.3611 48.7325 47.1197 49.3154 46.6899 49.7451C46.2601 50.1749 45.6772 50.4163 45.0694 50.4163H2.29167C1.68388 50.4163 1.10098 50.1749 0.671214 49.7451C0.241443 49.3154 0 48.7325 0 48.1247C0 47.5169 0.241443 46.934 0.671214 46.5042C1.10098 46.0744 1.68388 45.833 2.29167 45.833H45.0694C45.6772 45.833 46.2601 46.0744 46.6899 46.5042C47.1197 46.934 47.3611 47.5169 47.3611 48.1247Z" fill="#5C913B"/>
</svg>
